{
    "asset" : {
        "generator" : "Khronos glTF Blender I/O v1.7.33",
        "version" : "2.0"
    },
    "scene" : 0,
    "scenes" : [
        {
            "name" : "Scene",
            "nodes" : [
                0,
                1,
                2
            ]
        }
    ],
    "nodes" : [
        {
            "mesh" : 0,
            "name" : "Cylinder.001",
            "rotation" : [
                -0.40219712257385254,
                -0.17243656516075134,
                -0.07741823047399521,
                0.8958289623260498
            ],
            "scale" : [
                0.19296661019325256,
                -0.4778037369251251,
                0.19296658039093018
            ],
            "translation" : [
                -0.9716916084289551,
                3.3363969326019287,
                0.22796590626239777
            ]
        },
        {
            "mesh" : 1,
            "name" : "Cylinder.002",
            "rotation" : [
                -0.6711931824684143,
                -0.5196129679679871,
                -0.29984229803085327,
                -0.4354270100593567
            ],
            "scale" : [
                0.1816261261701584,
                0.5915812253952026,
                0.1816261261701584
            ],
            "translation" : [
                -0.7763261795043945,
                2.9225268363952637,
                1.1059304475784302
            ]
        },
        {
            "mesh" : 2,
            "name" : "Icosphere",
            "scale" : [
                0.2542555332183838,
                0.2542555332183838,
                0.2542555332183838
            ],
            "translation" : [
                -0.4087561070919037,
                2.79654860496521,
                1.4219791889190674
            ]
        }
    ],
    "materials" : [
        {
            "doubleSided" : true,
            "name" : "dark_cloth",
            "pbrMetallicRoughness" : {
                "baseColorFactor" : [
                    0.01691272296011448,
                    0.009781123138964176,
                    0.004627414047718048,
                    1
                ],
                "metallicFactor" : 0,
                "roughnessFactor" : 0.6555560231208801
            }
        },
        {
            "doubleSided" : true,
            "name" : "skin",
            "pbrMetallicRoughness" : {
                "baseColorFactor" : [
                    0.8000000715255737,
                    0.5063483119010925,
                    0.33784374594688416,
                    1
                ],
                "metallicFactor" : 0
            }
        }
    ],
    "meshes" : [
        {
            "name" : "Cylinder.001",
            "primitives" : [
                {
                    "attributes" : {
                        "POSITION" : 0,
                        "NORMAL" : 1,
                        "TEXCOORD_0" : 2
                    },
                    "indices" : 3,
                    "material" : 0
                }
            ]
        },
        {
            "name" : "Cylinder.002",
            "primitives" : [
                {
                    "attributes" : {
                        "POSITION" : 4,
                        "NORMAL" : 5,
                        "TEXCOORD_0" : 6
                    },
                    "indices" : 3,
                    "material" : 0
                }
            ]
        },
        {
            "name" : "Icosphere",
            "primitives" : [
                {
                    "attributes" : {
                        "POSITION" : 7,
                        "NORMAL" : 8,
                        "TEXCOORD_0" : 9
                    },
                    "indices" : 10,
                    "material" : 1
                }
            ]
        }
    ],
    "accessors" : [
        {
            "bufferView" : 0,
            "componentType" : 5126,
            "count" : 42,
            "max" : [
                0.9749279022216797,
                1,
                0.9009688496589661
            ],
            "min" : [
                -0.9749279022216797,
                -1,
                -1
            ],
            "type" : "VEC3"
        },
        {
            "bufferView" : 1,
            "componentType" : 5126,
            "count" : 42,
            "type" : "VEC3"
        },
        {
            "bufferView" : 2,
            "componentType" : 5126,
            "count" : 42,
            "type" : "VEC2"
        },
        {
            "bufferView" : 3,
            "componentType" : 5123,
            "count" : 72,
            "type" : "SCALAR"
        },
        {
            "bufferView" : 4,
            "componentType" : 5126,
            "count" : 42,
            "max" : [
                1.4180614948272705,
                0.560160756111145,
                1.677809476852417
            ],
            "min" : [
                -0.9063200950622559,
                -1.1199017763137817,
                -1.4553346633911133
            ],
            "type" : "VEC3"
        },
        {
            "bufferView" : 5,
            "componentType" : 5126,
            "count" : 42,
            "type" : "VEC3"
        },
        {
            "bufferView" : 6,
            "componentType" : 5126,
            "count" : 42,
            "type" : "VEC2"
        },
        {
            "bufferView" : 7,
            "componentType" : 5126,
            "count" : 60,
            "max" : [
                0.8944249749183655,
                1,
                0.8506399989128113
            ],
            "min" : [
                -0.8944249749183655,
                -1,
                -0.8506399989128113
            ],
            "type" : "VEC3"
        },
        {
            "bufferView" : 8,
            "componentType" : 5126,
            "count" : 60,
            "type" : "VEC3"
        },
        {
            "bufferView" : 9,
            "componentType" : 5126,
            "count" : 60,
            "type" : "VEC2"
        },
        {
            "bufferView" : 10,
            "componentType" : 5123,
            "count" : 60,
            "type" : "SCALAR"
        }
    ],
    "bufferViews" : [
        {
            "buffer" : 0,
            "byteLength" : 504,
            "byteOffset" : 0
        },
        {
            "buffer" : 0,
            "byteLength" : 504,
            "byteOffset" : 504
        },
        {
            "buffer" : 0,
            "byteLength" : 336,
            "byteOffset" : 1008
        },
        {
            "buffer" : 0,
            "byteLength" : 144,
            "byteOffset" : 1344
        },
        {
            "buffer" : 0,
            "byteLength" : 504,
            "byteOffset" : 1488
        },
        {
            "buffer" : 0,
            "byteLength" : 504,
            "byteOffset" : 1992
        },
        {
            "buffer" : 0,
            "byteLength" : 336,
            "byteOffset" : 2496
        },
        {
            "buffer" : 0,
            "byteLength" : 720,
            "byteOffset" : 2832
        },
        {
            "buffer" : 0,
            "byteLength" : 720,
            "byteOffset" : 3552
        },
        {
            "buffer" : 0,
            "byteLength" : 480,
            "byteOffset" : 4272
        },
        {
            "buffer" : 0,
            "byteLength" : 120,
            "byteOffset" : 4752
        }
    ],
    "buffers" : [
        {
            "byteLength" : 4872,
            "uri" : "data:application/octet-stream;base64,"
        }
    ]
}
