{
    "asset" : {
        "generator" : "Khronos glTF Blender I/O v1.7.33",
        "version" : "2.0"
    },
    "scene" : 0,
    "scenes" : [
        {
            "name" : "Scene",
            "nodes" : [
                0,
                1,
                2
            ]
        }
    ],
    "nodes" : [
        {
            "mesh" : 0,
            "name" : "Cylinder.004",
            "rotation" : [
                -0.40232986211776733,
                0.17089319229125977,
                0.0767253041267395,
                0.8961246609687805
            ],
            "scale" : [
                -0.1816261261701584,
                -0.44972366094589233,
                0.1816261261701584
            ],
            "translation" : [
                0.9351165294647217,
                3.2661123275756836,
                0.5746706128120422
            ]
        },
        {
            "mesh" : 1,
            "name" : "Cylinder.003",
            "rotation" : [
                -0.6864888072013855,
                -0.031253162771463394,
                -0.5281038284301758,
                -0.4988614320755005
            ],
            "scale" : [
                -0.1816261261701584,
                0.5915812253952026,
                0.1816261261701584
            ],
            "translation" : [
                0.7690794467926025,
                2.6106350421905518,
                1.3248358964920044
            ]
        },
        {
            "mesh" : 2,
            "name" : "Icosphere.001",
            "scale" : [
                0.2542555332183838,
                0.2542555332183838,
                0.2542555332183838
            ],
            "translation" : [
                0.7417826056480408,
                2.2504563331604004,
                1.6321738958358765
            ]
        }
    ],
    "materials" : [
        {
            "doubleSided" : true,
            "name" : "dark_cloth",
            "pbrMetallicRoughness" : {
                "baseColorFactor" : [
                    0.01691272296011448,
                    0.009781123138964176,
                    0.004627414047718048,
                    1
                ],
                "metallicFactor" : 0,
                "roughnessFactor" : 0.6555560231208801
            }
        },
        {
            "doubleSided" : true,
            "name" : "skin",
            "pbrMetallicRoughness" : {
                "baseColorFactor" : [
                    0.8000000715255737,
                    0.5063483119010925,
                    0.33784374594688416,
                    1
                ],
                "metallicFactor" : 0
            }
        }
    ],
    "meshes" : [
        {
            "name" : "Cylinder.004",
            "primitives" : [
                {
                    "attributes" : {
                        "POSITION" : 0,
                        "NORMAL" : 1,
                        "TEXCOORD_0" : 2
                    },
                    "indices" : 3,
                    "material" : 0
                }
            ]
        },
        {
            "name" : "Cylinder.003",
            "primitives" : [
                {
                    "attributes" : {
                        "POSITION" : 4,
                        "NORMAL" : 5,
                        "TEXCOORD_0" : 6
                    },
                    "indices" : 7,
                    "material" : 0
                }
            ]
        },
        {
            "name" : "Icosphere.001",
            "primitives" : [
                {
                    "attributes" : {
                        "POSITION" : 8,
                        "NORMAL" : 9,
                        "TEXCOORD_0" : 10
                    },
                    "indices" : 11,
                    "material" : 1
                }
            ]
        }
    ],
    "accessors" : [
        {
            "bufferView" : 0,
            "componentType" : 5126,
            "count" : 42,
            "max" : [
                0.9749279022216797,
                1,
                0.9009688496589661
            ],
            "min" : [
                -0.9749279022216797,
                -1,
                -1
            ],
            "type" : "VEC3"
        },
        {
            "bufferView" : 1,
            "componentType" : 5126,
            "count" : 42,
            "type" : "VEC3"
        },
        {
            "bufferView" : 2,
            "componentType" : 5126,
            "count" : 42,
            "type" : "VEC2"
        },
        {
            "bufferView" : 3,
            "componentType" : 5123,
            "count" : 72,
            "type" : "SCALAR"
        },
        {
            "bufferView" : 4,
            "componentType" : 5126,
            "count" : 42,
            "max" : [
                1.138210654258728,
                0.560160756111145,
                1.677809476852417
            ],
            "min" : [
                -1.304818034172058,
                -1.2249441146850586,
                -1.770322322845459
            ],
            "type" : "VEC3"
        },
        {
            "bufferView" : 5,
            "componentType" : 5126,
            "count" : 42,
            "type" : "VEC3"
        },
        {
            "bufferView" : 6,
            "componentType" : 5126,
            "count" : 42,
            "type" : "VEC2"
        },
        {
            "bufferView" : 7,
            "componentType" : 5123,
            "count" : 72,
            "type" : "SCALAR"
        },
        {
            "bufferView" : 8,
            "componentType" : 5126,
            "count" : 60,
            "max" : [
                0.8944249749183655,
                1,
                0.8506399989128113
            ],
            "min" : [
                -0.8944249749183655,
                -1,
                -0.8506399989128113
            ],
            "type" : "VEC3"
        },
        {
            "bufferView" : 9,
            "componentType" : 5126,
            "count" : 60,
            "type" : "VEC3"
        },
        {
            "bufferView" : 10,
            "componentType" : 5126,
            "count" : 60,
            "type" : "VEC2"
        },
        {
            "bufferView" : 11,
            "componentType" : 5123,
            "count" : 60,
            "type" : "SCALAR"
        }
    ],
    "bufferViews" : [
        {
            "buffer" : 0,
            "byteLength" : 504,
            "byteOffset" : 0
        },
        {
            "buffer" : 0,
            "byteLength" : 504,
            "byteOffset" : 504
        },
        {
            "buffer" : 0,
            "byteLength" : 336,
            "byteOffset" : 1008
        },
        {
            "buffer" : 0,
            "byteLength" : 144,
            "byteOffset" : 1344
        },
        {
            "buffer" : 0,
            "byteLength" : 504,
            "byteOffset" : 1488
        },
        {
            "buffer" : 0,
            "byteLength" : 504,
            "byteOffset" : 1992
        },
        {
            "buffer" : 0,
            "byteLength" : 336,
            "byteOffset" : 2496
        },
        {
            "buffer" : 0,
            "byteLength" : 144,
            "byteOffset" : 2832
        },
        {
            "buffer" : 0,
            "byteLength" : 720,
            "byteOffset" : 2976
        },
        {
            "buffer" : 0,
            "byteLength" : 720,
            "byteOffset" : 3696
        },
        {
            "buffer" : 0,
            "byteLength" : 480,
            "byteOffset" : 4416
        },
        {
            "buffer" : 0,
            "byteLength" : 120,
            "byteOffset" : 4896
        }
    ],
    "buffers" : [
        {
            "byteLength" : 5016,
            "uri" : "data:application/octet-stream;base64,"
        }
    ]
}
