{
    "asset" : {
        "generator" : "Khronos glTF Blender I/O v1.7.33",
        "version" : "2.0"
    },
    "scene" : 0,
    "scenes" : [
        {
            "name" : "Scene",
            "nodes" : [
                0,
                1,
                2
            ]
        }
    ],
    "nodes" : [
        {
            "mesh" : 0,
            "name" : "Cylinder",
            "scale" : [
                0.8165243268013,
                0.8165243268013,
                0.8165243268013
            ],
            "translation" : [
                -0.010883092880249023,
                0.9728648662567139,
                0
            ]
        },
        {
            "mesh" : 1,
            "name" : "Cube.002",
            "scale" : [
                0.6882580518722534,
                -0.29055002331733704,
                0.4785241186618805
            ],
            "translation" : [
                -0.010883092880249023,
                3.934833288192749,
                0
            ]
        },
        {
            "mesh" : 2,
            "name" : "Cube.005",
            "scale" : [
                0.09514593333005905,
                0.14345002174377441,
                0.14345002174377441
            ],
            "translation" : [
                -0.11684434115886688,
                3.825399398803711,
                0.4178035259246826
            ]
        }
    ],
    "materials" : [
        {
            "doubleSided" : true,
            "name" : "dark_cloth",
            "pbrMetallicRoughness" : {
                "baseColorFactor" : [
                    0.01691272296011448,
                    0.009781123138964176,
                    0.004627414047718048,
                    1
                ],
                "metallicFactor" : 0,
                "roughnessFactor" : 0.6555560231208801
            }
        },
        {
            "doubleSided" : true,
            "name" : "gold",
            "pbrMetallicRoughness" : {
                "baseColorFactor" : [
                    0.6563187837600708,
                    0.8000000715255737,
                    0.22479313611984253,
                    1
                ],
                "roughnessFactor" : 0.5
            }
        }
    ],
    "meshes" : [
        {
            "name" : "Cylinder",
            "primitives" : [
                {
                    "attributes" : {
                        "POSITION" : 0,
                        "NORMAL" : 1,
                        "TEXCOORD_0" : 2
                    },
                    "indices" : 3,
                    "material" : 0
                }
            ]
        },
        {
            "name" : "Cube.002",
            "primitives" : [
                {
                    "attributes" : {
                        "POSITION" : 4,
                        "NORMAL" : 5,
                        "TEXCOORD_0" : 6
                    },
                    "indices" : 7,
                    "material" : 0
                }
            ]
        },
        {
            "name" : "Cube.005",
            "primitives" : [
                {
                    "attributes" : {
                        "POSITION" : 8,
                        "NORMAL" : 9,
                        "TEXCOORD_0" : 10
                    },
                    "indices" : 11,
                    "material" : 1
                }
            ]
        }
    ],
    "accessors" : [
        {
            "bufferView" : 0,
            "componentType" : 5126,
            "count" : 98,
            "max" : [
                0.9749279022216797,
                3.554490804672241,
                0.9009688496589661
            ],
            "min" : [
                -0.9749279022216797,
                -0.49212390184402466,
                -1
            ],
            "type" : "VEC3"
        },
        {
            "bufferView" : 1,
            "componentType" : 5126,
            "count" : 98,
            "type" : "VEC3"
        },
        {
            "bufferView" : 2,
            "componentType" : 5126,
            "count" : 98,
            "type" : "VEC2"
        },
        {
            "bufferView" : 3,
            "componentType" : 5123,
            "count" : 156,
            "type" : "SCALAR"
        },
        {
            "bufferView" : 4,
            "componentType" : 5126,
            "count" : 72,
            "max" : [
                1.7448594570159912,
                1.5577069520950317,
                1
            ],
            "min" : [
                -1.7448594570159912,
                -1,
                -1.1749320030212402
            ],
            "type" : "VEC3"
        },
        {
            "bufferView" : 5,
            "componentType" : 5126,
            "count" : 72,
            "type" : "VEC3"
        },
        {
            "bufferView" : 6,
            "componentType" : 5126,
            "count" : 72,
            "type" : "VEC2"
        },
        {
            "bufferView" : 7,
            "componentType" : 5123,
            "count" : 108,
            "type" : "SCALAR"
        },
        {
            "bufferView" : 8,
            "componentType" : 5126,
            "count" : 24,
            "max" : [
                1,
                1,
                1
            ],
            "min" : [
                -1,
                -1,
                -1
            ],
            "type" : "VEC3"
        },
        {
            "bufferView" : 9,
            "componentType" : 5126,
            "count" : 24,
            "type" : "VEC3"
        },
        {
            "bufferView" : 10,
            "componentType" : 5126,
            "count" : 24,
            "type" : "VEC2"
        },
        {
            "bufferView" : 11,
            "componentType" : 5123,
            "count" : 36,
            "type" : "SCALAR"
        }
    ],
    "bufferViews" : [
        {
            "buffer" : 0,
            "byteLength" : 1176,
            "byteOffset" : 0
        },
        {
            "buffer" : 0,
            "byteLength" : 1176,
            "byteOffset" : 1176
        },
        {
            "buffer" : 0,
            "byteLength" : 784,
            "byteOffset" : 2352
        },
        {
            "buffer" : 0,
            "byteLength" : 312,
            "byteOffset" : 3136
        },
        {
            "buffer" : 0,
            "byteLength" : 864,
            "byteOffset" : 3448
        },
        {
            "buffer" : 0,
            "byteLength" : 864,
            "byteOffset" : 4312
        },
        {
            "buffer" : 0,
            "byteLength" : 576,
            "byteOffset" : 5176
        },
        {
            "buffer" : 0,
            "byteLength" : 216,
            "byteOffset" : 5752
        },
        {
            "buffer" : 0,
            "byteLength" : 288,
            "byteOffset" : 5968
        },
        {
            "buffer" : 0,
            "byteLength" : 288,
            "byteOffset" : 6256
        },
        {
            "buffer" : 0,
            "byteLength" : 192,
            "byteOffset" : 6544
        },
        {
            "buffer" : 0,
            "byteLength" : 72,
            "byteOffset" : 6736
        }
    ],
    "buffers" : [
        {
            "byteLength" : 6808,
            "uri" : "data:application/octet-stream;base64,"
        }
    ]
}
