{
    "asset" : {
        "generator" : "Khronos glTF Blender I/O v1.7.33",
        "version" : "2.0"
    },
    "scene" : 0,
    "scenes" : [
        {
            "name" : "Scene",
            "nodes" : [
                0,
                1,
                2,
                3
            ]
        }
    ],
    "nodes" : [
        {
            "mesh" : 0,
            "name" : "Sphere",
            "scale" : [
                0.44211551547050476,
                0.44211551547050476,
                0.42709222435951233
            ],
            "translation" : [
                -0.010883092880249023,
                4.644440650939941,
                0
            ]
        },
        {
            "mesh" : 1,
            "name" : "Cylinder.005",
            "scale" : [
                -0.5553408861160278,
                -0.054773543030023575,
                -0.5553408861160278
            ],
            "translation" : [
                -0.010883092880249023,
                4.907107830047607,
                0
            ]
        },
        {
            "mesh" : 2,
            "name" : "Cube.003",
            "scale" : [
                0.1724851131439209,
                0.1724851131439209,
                0.1724851131439209
            ],
            "translation" : [
                -0.010883092880249023,
                4.238495349884033,
                -0.12435027211904526
            ]
        },
        {
            "mesh" : 3,
            "name" : "Cube.004",
            "scale" : [
                0.09514593333005905,
                0.14345002174377441,
                0.14345002174377441
            ],
            "translation" : [
                -0.002111189067363739,
                5.143068313598633,
                0.3149830996990204
            ]
        }
    ],
    "materials" : [
        {
            "doubleSided" : true,
            "name" : "skin",
            "pbrMetallicRoughness" : {
                "baseColorFactor" : [
                    0.8000000715255737,
                    0.5063483119010925,
                    0.33784374594688416,
                    1
                ],
                "metallicFactor" : 0
            }
        },
        {
            "doubleSided" : true,
            "name" : "dark_cloth",
            "pbrMetallicRoughness" : {
                "baseColorFactor" : [
                    0.01691272296011448,
                    0.009781123138964176,
                    0.004627414047718048,
                    1
                ],
                "metallicFactor" : 0,
                "roughnessFactor" : 0.6555560231208801
            }
        },
        {
            "doubleSided" : true,
            "name" : "gold",
            "pbrMetallicRoughness" : {
                "baseColorFactor" : [
                    0.6563187837600708,
                    0.8000000715255737,
                    0.22479313611984253,
                    1
                ],
                "roughnessFactor" : 0.5
            }
        }
    ],
    "meshes" : [
        {
            "name" : "Sphere",
            "primitives" : [
                {
                    "attributes" : {
                        "POSITION" : 0,
                        "NORMAL" : 1,
                        "TEXCOORD_0" : 2
                    },
                    "indices" : 3,
                    "material" : 0
                }
            ]
        },
        {
            "name" : "Cylinder.005",
            "primitives" : [
                {
                    "attributes" : {
                        "POSITION" : 4,
                        "NORMAL" : 5,
                        "TEXCOORD_0" : 6
                    },
                    "indices" : 7,
                    "material" : 1
                }
            ]
        },
        {
            "name" : "Cube.003",
            "primitives" : [
                {
                    "attributes" : {
                        "POSITION" : 8,
                        "NORMAL" : 9,
                        "TEXCOORD_0" : 10
                    },
                    "indices" : 11,
                    "material" : 0
                }
            ]
        },
        {
            "name" : "Cube.004",
            "primitives" : [
                {
                    "attributes" : {
                        "POSITION" : 12,
                        "NORMAL" : 13,
                        "TEXCOORD_0" : 14
                    },
                    "indices" : 11,
                    "material" : 2
                }
            ]
        }
    ],
    "accessors" : [
        {
            "bufferView" : 0,
            "componentType" : 5126,
            "count" : 182,
            "max" : [
                0.823731541633606,
                1,
                1.0273618698120117
            ],
            "min" : [
                -0.8237316608428955,
                -1,
                -0.9749279022216797
            ],
            "type" : "VEC3"
        },
        {
            "bufferView" : 1,
            "componentType" : 5126,
            "count" : 182,
            "type" : "VEC3"
        },
        {
            "bufferView" : 2,
            "componentType" : 5126,
            "count" : 182,
            "type" : "VEC2"
        },
        {
            "bufferView" : 3,
            "componentType" : 5123,
            "count" : 252,
            "type" : "SCALAR"
        },
        {
            "bufferView" : 4,
            "componentType" : 5126,
            "count" : 90,
            "max" : [
                0.9525134563446045,
                3.7750957012176514,
                1.0052456855773926
            ],
            "min" : [
                -0.9525135159492493,
                -16.170148849487305,
                -1.0069324970245361
            ],
            "type" : "VEC3"
        },
        {
            "bufferView" : 5,
            "componentType" : 5126,
            "count" : 90,
            "type" : "VEC3"
        },
        {
            "bufferView" : 6,
            "componentType" : 5126,
            "count" : 90,
            "type" : "VEC2"
        },
        {
            "bufferView" : 7,
            "componentType" : 5123,
            "count" : 138,
            "type" : "SCALAR"
        },
        {
            "bufferView" : 8,
            "componentType" : 5126,
            "count" : 24,
            "max" : [
                1,
                1,
                1
            ],
            "min" : [
                -1,
                -1,
                -1
            ],
            "type" : "VEC3"
        },
        {
            "bufferView" : 9,
            "componentType" : 5126,
            "count" : 24,
            "type" : "VEC3"
        },
        {
            "bufferView" : 10,
            "componentType" : 5126,
            "count" : 24,
            "type" : "VEC2"
        },
        {
            "bufferView" : 11,
            "componentType" : 5123,
            "count" : 36,
            "type" : "SCALAR"
        },
        {
            "bufferView" : 12,
            "componentType" : 5126,
            "count" : 24,
            "max" : [
                1,
                1,
                1
            ],
            "min" : [
                -1,
                -1,
                -1
            ],
            "type" : "VEC3"
        },
        {
            "bufferView" : 13,
            "componentType" : 5126,
            "count" : 24,
            "type" : "VEC3"
        },
        {
            "bufferView" : 14,
            "componentType" : 5126,
            "count" : 24,
            "type" : "VEC2"
        }
    ],
    "bufferViews" : [
        {
            "buffer" : 0,
            "byteLength" : 2184,
            "byteOffset" : 0
        },
        {
            "buffer" : 0,
            "byteLength" : 2184,
            "byteOffset" : 2184
        },
        {
            "buffer" : 0,
            "byteLength" : 1456,
            "byteOffset" : 4368
        },
        {
            "buffer" : 0,
            "byteLength" : 504,
            "byteOffset" : 5824
        },
        {
            "buffer" : 0,
            "byteLength" : 1080,
            "byteOffset" : 6328
        },
        {
            "buffer" : 0,
            "byteLength" : 1080,
            "byteOffset" : 7408
        },
        {
            "buffer" : 0,
            "byteLength" : 720,
            "byteOffset" : 8488
        },
        {
            "buffer" : 0,
            "byteLength" : 276,
            "byteOffset" : 9208
        },
        {
            "buffer" : 0,
            "byteLength" : 288,
            "byteOffset" : 9484
        },
        {
            "buffer" : 0,
            "byteLength" : 288,
            "byteOffset" : 9772
        },
        {
            "buffer" : 0,
            "byteLength" : 192,
            "byteOffset" : 10060
        },
        {
            "buffer" : 0,
            "byteLength" : 72,
            "byteOffset" : 10252
        },
        {
            "buffer" : 0,
            "byteLength" : 288,
            "byteOffset" : 10324
        },
        {
            "buffer" : 0,
            "byteLength" : 288,
            "byteOffset" : 10612
        },
        {
            "buffer" : 0,
            "byteLength" : 192,
            "byteOffset" : 10900
        }
    ],
    "buffers" : [
        {
            "byteLength" : 11092,
            "uri" : "data:application/octet-stream;base64,"
        }
    ]
}
