# Blender v3.0.0 OBJ File: 'wall_wooden_plank.blend'
# www.blender.org
mtllib crooked_wooken_pole.mtl
o Cylinder.002
v -0.001248 -3.728794 -0.325352
v -0.001248 -2.015279 -0.325352
v 0.258043 -3.728794 -0.163004
v 0.258043 -2.015279 -0.163004
v 0.159002 -3.728794 0.099682
v 0.159002 -2.015279 0.099682
v -0.161499 -3.728794 0.099682
v -0.161499 -2.015279 0.099682
v -0.260540 -3.728794 -0.163004
v -0.260540 -2.015279 -0.163004
v 0.284028 -1.292375 -0.163004
v 0.024737 -1.292375 -0.325352
v 0.184987 -1.292375 0.099682
v -0.135514 -1.292375 0.099682
v -0.234555 -1.292375 -0.163004
v 0.226320 0.410326 -0.221061
v -0.032971 0.410326 -0.383409
v 0.127279 0.410326 0.041625
v -0.193222 0.410326 0.041625
v -0.292263 0.410326 -0.221061
v 0.183977 3.275304 -0.209204
v -0.032972 3.275304 -0.345040
v 0.101110 3.275304 0.010584
v -0.167053 3.275304 0.010584
v -0.249920 3.275304 -0.209204
vt 1.000000 0.500000
vt 1.000000 1.000000
vt 0.800000 1.000000
vt 0.800000 0.500000
vt 0.600000 1.000000
vt 0.600000 0.500000
vt 0.400000 1.000000
vt 0.400000 0.500000
vt 0.800000 1.000000
vt 0.600000 1.000000
vt 0.200000 1.000000
vt 0.200000 0.500000
vt 0.000000 1.000000
vt 0.000000 0.500000
vt 0.750000 0.490000
vt 0.978254 0.324164
vt 0.891068 0.055836
vt 0.608932 0.055836
vt 0.521746 0.324164
vt 0.800000 1.000000
vt 0.600000 1.000000
vt 0.200000 1.000000
vt 0.000000 1.000000
vt 1.000000 1.000000
vt 0.400000 1.000000
vt 0.400000 1.000000
vt 0.600000 1.000000
vt 0.400000 1.000000
vt 0.200000 1.000000
vt 0.000000 1.000000
vt 1.000000 1.000000
vt 0.478254 0.324164
vt 0.250000 0.490000
vt 0.021746 0.324164
vt 0.108932 0.055836
vt 0.391068 0.055836
vt 1.000000 1.000000
vt 0.800000 1.000000
vt 0.200000 1.000000
vt 0.000000 1.000000
vn 0.5307 0.0000 -0.8476
vn 0.9357 0.0000 0.3528
vn 0.0000 0.0000 1.0000
vn 0.9352 -0.0336 0.3526
vn -0.9357 0.0000 0.3528
vn -0.5307 0.0000 -0.8476
vn 0.0000 -1.0000 0.0000
vn 0.9348 0.0437 0.3525
vn -0.5306 0.0191 -0.8474
vn 0.5306 -0.0191 -0.8474
vn -0.9352 0.0336 0.3526
vn 0.0000 0.0108 0.9999
vn -0.5301 -0.0468 -0.8466
vn 0.0000 0.0341 0.9994
vn 0.5307 -0.0109 -0.8475
vn -0.9355 -0.0197 0.3527
vn 0.0000 1.0000 -0.0000
vn 0.5306 0.0114 -0.8475
vn -0.9356 0.0124 0.3528
vn 0.9356 0.0124 0.3528
vn -0.5306 0.0114 -0.8475
usemtl wood
s off
f 1/1/1 2/2/1 4/3/1 3/4/1
f 3/4/2 4/3/2 6/5/2 5/6/2
f 5/6/3 6/5/3 8/7/3 7/8/3
f 6/5/4 4/3/4 11/9/4 13/10/4
f 7/8/5 8/7/5 10/11/5 9/12/5
f 9/12/6 10/11/6 2/13/6 1/14/6
f 1/15/7 3/16/7 5/17/7 7/18/7 9/19/7
f 13/10/8 11/9/8 16/20/8 18/21/8
f 2/13/9 10/11/9 15/22/9 12/23/9
f 4/3/10 2/2/10 12/24/10 11/9/10
f 8/7/3 6/5/3 13/10/3 14/25/3
f 10/11/11 8/7/11 14/25/11 15/22/11
f 19/26/12 18/21/12 23/27/12 24/28/12
f 12/23/13 15/22/13 20/29/13 17/30/13
f 14/25/14 13/10/14 18/21/14 19/26/14
f 11/9/15 12/24/15 17/31/15 16/20/15
f 15/22/16 14/25/16 19/26/16 20/29/16
f 21/32/17 22/33/17 25/34/17 24/35/17 23/36/17
f 16/20/18 17/31/18 22/37/18 21/38/18
f 20/29/19 19/26/19 24/28/19 25/39/19
f 18/21/20 16/20/20 21/38/20 23/27/20
f 17/30/21 20/29/21 25/39/21 22/40/21
