# Blender v3.0.0 OBJ File: 'wall_wooden_plank.blend'
# www.blender.org
mtllib minimalist_fence.mtl
o Cylinder.002
v -0.002122 -1.678776 -0.616930
v -0.002122 -0.365644 -0.616930
v 0.438673 -1.678776 -0.340939
v 0.438673 -0.365644 -0.340939
v 0.270304 -1.678776 0.105628
v 0.270304 -0.365644 0.105628
v -0.274549 -1.678776 0.105628
v -0.274549 -0.365644 0.105628
v -0.442917 -1.678776 -0.340939
v -0.442917 -0.365644 -0.340939
v 0.482847 0.188345 -0.340939
v 0.042052 0.188345 -0.616930
v 0.314479 0.188345 0.105628
v -0.230374 0.188345 0.105628
v -0.398743 0.188345 -0.340939
v 0.384744 1.493190 -0.439635
v -0.056051 1.493190 -0.715627
v 0.216375 1.493190 0.006931
v -0.328478 1.493190 0.006931
v -0.496846 1.493190 -0.439635
v 0.312760 3.688732 -0.419479
v -0.056051 3.688732 -0.650400
v 0.171887 3.688732 -0.045839
v -0.283990 3.688732 -0.045839
v -0.424863 3.688732 -0.419479
vt 1.000000 0.500000
vt 1.000000 1.000000
vt 0.800000 1.000000
vt 0.800000 0.500000
vt 0.600000 1.000000
vt 0.600000 0.500000
vt 0.400000 1.000000
vt 0.400000 0.500000
vt 0.800000 1.000000
vt 0.600000 1.000000
vt 0.200000 1.000000
vt 0.200000 0.500000
vt 0.000000 1.000000
vt 0.000000 0.500000
vt 0.750000 0.490000
vt 0.978254 0.324164
vt 0.891068 0.055836
vt 0.608932 0.055836
vt 0.521746 0.324164
vt 0.800000 1.000000
vt 0.600000 1.000000
vt 0.200000 1.000000
vt 0.000000 1.000000
vt 1.000000 1.000000
vt 0.400000 1.000000
vt 0.400000 1.000000
vt 0.600000 1.000000
vt 0.400000 1.000000
vt 0.200000 1.000000
vt 0.000000 1.000000
vt 1.000000 1.000000
vt 0.478254 0.324164
vt 0.250000 0.490000
vt 0.021746 0.324164
vt 0.108932 0.055836
vt 0.391068 0.055836
vt 1.000000 1.000000
vt 0.800000 1.000000
vt 0.200000 1.000000
vt 0.000000 1.000000
vn 0.5307 0.0000 -0.8476
vn 0.9357 0.0000 0.3528
vn 0.0000 0.0000 1.0000
vn 0.9331 -0.0744 0.3518
vn -0.9357 0.0000 0.3528
vn -0.5307 0.0000 -0.8476
vn 0.0000 -1.0000 0.0000
vn 0.9313 0.0966 0.3511
vn -0.5302 0.0423 -0.8468
vn 0.5302 -0.0423 -0.8468
vn -0.9331 0.0744 0.3518
vn 0.0000 0.0240 0.9997
vn -0.5278 -0.1034 -0.8430
vn 0.0000 0.0754 0.9972
vn 0.5305 -0.0242 -0.8473
vn -0.9348 -0.0436 0.3525
vn 0.0000 1.0000 0.0000
vn 0.5305 0.0252 -0.8473
vn -0.9354 0.0274 0.3527
vn 0.9354 0.0274 0.3527
vn -0.5305 0.0252 -0.8473
usemtl wood.006
s off
f 1/1/1 2/2/1 4/3/1 3/4/1
f 3/4/2 4/3/2 6/5/2 5/6/2
f 5/6/3 6/5/3 8/7/3 7/8/3
f 6/5/4 4/3/4 11/9/4 13/10/4
f 7/8/5 8/7/5 10/11/5 9/12/5
f 9/12/6 10/11/6 2/13/6 1/14/6
f 1/15/7 3/16/7 5/17/7 7/18/7 9/19/7
f 13/10/8 11/9/8 16/20/8 18/21/8
f 2/13/9 10/11/9 15/22/9 12/23/9
f 4/3/10 2/2/10 12/24/10 11/9/10
f 8/7/3 6/5/3 13/10/3 14/25/3
f 10/11/11 8/7/11 14/25/11 15/22/11
f 19/26/12 18/21/12 23/27/12 24/28/12
f 12/23/13 15/22/13 20/29/13 17/30/13
f 14/25/14 13/10/14 18/21/14 19/26/14
f 11/9/15 12/24/15 17/31/15 16/20/15
f 15/22/16 14/25/16 19/26/16 20/29/16
f 21/32/17 22/33/17 25/34/17 24/35/17 23/36/17
f 16/20/18 17/31/18 22/37/18 21/38/18
f 20/29/19 19/26/19 24/28/19 25/39/19
f 18/21/20 16/20/20 21/38/20 23/27/20
f 17/30/21 20/29/21 25/39/21 22/40/21
