# Blender v3.0.0 OBJ File: 'wall_wooden_plank.blend'
# www.blender.org
mtllib tall_tree_stump.mtl
o Cylinder.004_Cylinder.003
v 0.000000 -1.000000 -1.000000
v -0.000000 1.000000 -0.894316
v 0.951057 -1.000000 -0.309017
v 0.850545 1.000000 -0.276359
v 0.587785 -1.000000 0.809017
v 0.305285 1.344409 0.710852
v -0.587785 -1.000000 0.809017
v -0.120353 1.344409 0.710852
v -0.951056 -1.000000 -0.309017
v -0.850545 1.000000 -0.276359
v 1.156961 2.526851 -0.246077
v 0.399615 2.526851 -0.796320
v 0.493004 2.182442 0.656902
v 0.130596 2.182442 0.656902
v -0.357730 2.526851 -0.246077
v 0.772846 3.369764 -0.190493
v 0.186568 3.369764 -0.616450
v 0.548908 3.369764 0.498718
v -0.175773 3.369764 0.498718
v -0.399711 3.369764 -0.190494
v 0.943913 3.369764 -0.246077
v 0.186568 3.369764 -0.796320
v 0.654633 3.369764 0.644237
v -0.281498 3.369764 0.644237
v -0.570778 3.369764 -0.246077
v 0.772846 3.204869 -0.190493
v 0.186568 3.204869 -0.616450
v 0.548908 3.204869 0.498718
v -0.175773 3.204869 0.498718
v -0.399711 3.204869 -0.190494
v -0.525666 1.000000 0.723517
v 0.525666 1.000000 0.723517
v -0.068450 2.526851 0.644237
v 0.867681 2.526851 0.644237
v -0.003726 1.989598 1.454646
v 0.267980 1.989598 1.454646
v 0.156467 2.524557 1.420207
v 0.387811 2.524557 1.420207
v 0.000000 -1.183738 -1.096300
v 0.912161 -1.183738 -0.403990
v 0.768435 -1.183738 1.057660
v -1.280641 -1.183738 1.820587
v -1.102433 -1.183738 -0.403990
vt 0.464313 -0.077881
vt 0.464313 0.379810
vt 0.658956 0.379810
vt 0.681958 -0.077881
vt 0.570717 -0.077881
vt 0.563243 0.379810
vt 0.334427 0.379810
vt 0.314860 -0.077881
vt 0.598825 -0.077881
vt 0.584609 0.379810
vt 0.344017 0.379810
vt 0.329801 -0.077881
vt 0.556313 0.729223
vt 0.352569 0.729223
vt 0.314860 -0.077881
vt 0.334427 0.379810
vt 0.563243 0.379810
vt 0.570717 -0.077881
vt 0.246668 -0.077881
vt 0.269669 0.379810
vt 0.314860 -0.077881
vt 0.570717 -0.077881
vt 0.556313 0.922119
vt 0.352569 0.922119
vt 0.382448 0.729223
vt 0.555763 0.729223
vt 0.729078 0.729223
vt 0.539837 0.435628
vt 0.593099 0.673405
vt 0.593099 0.673405
vt 0.539837 0.435628
vt 0.352569 0.729223
vt 0.556314 0.729223
vt 0.424088 0.385871
vt 0.589928 0.385871
vt 0.589928 0.385871
vt 0.424088 0.385871
vt 0.333693 0.922119
vt 0.507008 0.922119
vt 0.448648 0.729223
vt 0.662877 0.729223
vt 0.614122 0.922119
vt 0.399893 0.922119
vt 0.680323 0.922119
vt 0.352569 0.922119
vt 0.556314 0.922119
vt 0.507008 0.641072
vt 0.641175 0.543594
vt 0.680323 0.556313
vt 0.507008 0.682234
vt 0.614122 0.352569
vt 0.399893 0.352569
vt 0.372841 0.543594
vt 0.333693 0.556314
vt 0.641175 0.543594
vt 0.507008 0.641072
vt 0.372841 0.543594
vt 0.419071 0.435628
vt 0.490273 0.673405
vt 0.419071 0.435628
vt 0.490273 0.673405
vt 0.464313 0.728845
vt 0.681958 0.570717
vt 0.598825 0.314860
vt 0.329801 0.314860
vt 0.246668 0.570717
vt 0.464313 -0.077881
vt 0.246668 -0.077881
vt 0.681958 -0.077881
vt 0.329801 -0.077881
vt 0.598825 -0.077881
vt 0.570717 -0.077881
vt 0.314860 -0.077881
vn 0.5872 0.0427 -0.8083
vn 0.9502 0.0427 0.3087
vn -0.0000 0.0427 0.9991
vn 0.9331 -0.1933 0.3032
vn -0.9502 0.0427 0.3087
vn -0.5872 0.0427 -0.8083
vn 0.8917 0.4173 0.1753
vn 0.9247 0.2337 0.3005
vn -0.5757 0.2015 -0.7924
vn 0.5848 -0.1014 -0.8048
vn 0.9546 -0.1996 0.2210
vn -0.9107 0.2881 0.2959
vn 0.0000 0.0000 -1.0000
vn -0.5814 -0.1470 -0.8002
vn -0.0000 -0.0000 1.0000
vn 0.5814 0.1470 -0.8002
vn -0.9247 -0.2337 0.3005
vn 0.0000 1.0000 0.0000
vn -0.5878 0.0000 0.8090
vn 0.9511 0.0000 -0.3090
vn -0.9511 0.0000 -0.3090
vn 0.5878 0.0000 0.8090
vn -0.0000 0.0367 0.9993
vn -0.0000 0.0562 0.9984
vn -0.0000 0.0642 0.9979
vn -0.0000 -0.7554 0.6553
vn -0.9554 0.2801 -0.0932
vn 0.0000 0.9125 -0.4090
vn 0.0000 -1.0000 -0.0000
vn -0.4659 0.5519 -0.6916
vn 0.5618 0.3344 -0.7567
vn 0.0725 0.9492 0.3062
vn -0.3797 0.9249 0.0210
usemtl bark
s off
f 1/1/1 2/2/1 4/3/1 3/4/1
f 3/5/2 4/6/2 32/7/2 5/8/2
f 5/9/3 32/10/3 31/11/3 7/12/3
f 32/7/4 4/6/4 11/13/4 34/14/4
f 7/15/5 31/16/5 10/17/5 9/18/5
f 9/19/6 10/20/6 2/2/6 1/1/6
f 3/5/7 5/8/7 41/21/7 40/22/7
f 34/14/8 11/13/8 21/23/8 23/24/8
f 2/2/9 10/20/9 15/25/9 12/26/9
f 4/3/10 2/2/10 12/26/10 11/27/10
f 6/28/11 13/29/11 38/30/11 36/31/11
f 10/17/12 31/16/12 33/32/12 15/33/12
f 19/34/13 18/35/13 28/36/13 29/37/13
f 12/26/14 15/25/14 25/38/14 22/39/14
f 33/40/15 34/41/15 23/42/15 24/43/15
f 11/27/16 12/26/16 22/39/16 21/44/16
f 15/33/17 33/32/17 24/45/17 25/46/17
f 17/47/18 16/48/18 21/49/18 22/50/18
f 16/48/18 18/35/18 23/51/18 21/49/18
f 18/35/18 19/34/18 24/52/18 23/51/18
f 19/34/18 20/53/18 25/54/18 24/52/18
f 20/53/18 17/47/18 22/50/18 25/54/18
f 26/55/18 27/56/18 30/57/18 29/37/18 28/36/18
f 16/48/19 17/47/19 27/56/19 26/55/19
f 20/53/20 19/34/20 29/37/20 30/57/20
f 18/35/21 16/48/21 26/55/21 28/36/21
f 17/47/22 20/53/22 30/57/22 27/56/22
f 6/28/23 8/58/23 31/11/23 32/10/23
f 14/59/23 13/29/23 34/41/23 33/40/23
f 13/29/24 6/28/24 32/10/24 34/41/24
f 8/58/24 14/59/24 33/40/24 31/11/24
f 35/60/25 36/31/25 38/30/25 37/61/25
f 8/58/26 6/28/26 36/31/26 35/60/26
f 14/59/27 8/58/27 35/60/27 37/61/27
f 13/29/28 14/59/28 37/61/28 38/30/28
f 39/62/29 40/63/29 41/64/29 42/65/29 43/66/29
f 9/19/30 1/1/30 39/67/30 43/68/30
f 1/1/31 3/4/31 40/69/31 39/67/31
f 5/9/32 7/12/32 42/70/32 41/71/32
f 7/15/33 9/18/33 43/72/33 42/73/33
