# Blender v3.0.0 OBJ File: 'wall_window_smooth.blend'
# www.blender.org
mtllib wall_window_smooth.mtl
o Cube.002
v -0.602057 -1.532541 0.918258
v -0.602057 -1.532541 0.918258
v -0.602057 -1.532541 0.918258
v -0.602057 1.898717 0.918258
v -0.602057 1.898717 0.918258
v -0.602057 1.898717 0.918258
v -0.602057 1.898717 0.918258
v -0.602057 -1.532541 -1.292668
v -0.602057 -1.532541 -1.292668
v -0.602057 -1.532541 -1.292668
v -0.602057 -1.532541 -1.292668
v -0.602057 1.898717 -1.292668
v -0.602057 1.898717 -1.292668
v -0.602057 1.898717 -1.292668
v -0.602057 1.898717 -1.292668
v -0.478972 -3.321704 3.376267
v -0.478972 -3.321704 3.376267
v -0.478972 3.912833 3.376267
v -0.478972 3.912833 3.376267
v -0.478972 -3.321704 -3.858270
v -0.478972 -3.321704 -3.858270
v -0.478972 3.912833 -3.858270
v -0.478972 3.912833 -3.858270
v -0.602057 -3.321704 3.376267
v -0.602057 -3.321704 3.376267
v -0.602057 -3.321704 3.376267
v -0.602057 3.912833 3.376267
v -0.602057 3.912833 3.376267
v -0.602057 3.912833 3.376267
v -0.602057 3.912833 3.376267
v -0.602057 -3.321704 -3.858270
v -0.602057 -3.321704 -3.858270
v -0.602057 -3.321704 -3.858270
v -0.602057 -3.321704 -3.858270
v -0.602057 3.912833 -3.858270
v -0.602057 3.912833 -3.858270
v -0.602057 3.912833 -3.858270
v -0.602057 3.912833 -3.858270
v -0.679280 -1.180557 0.796417
v -0.679280 -1.180557 0.796417
v -0.679280 -1.180557 0.796417
v -0.679280 -1.180557 0.796417
v -0.679280 1.546734 0.796417
v -0.679280 1.546734 0.796417
v -0.679280 1.546734 0.796417
v -0.679280 1.546734 0.796417
v -0.679280 -1.180557 -1.170826
v -0.679280 -1.180557 -1.170826
v -0.679280 -1.180557 -1.170826
v -0.679280 -1.180557 -1.170826
v -0.679280 1.546734 -1.170826
v -0.679280 1.546734 -1.170826
v -0.679280 1.546734 -1.170826
v -0.679280 1.546734 -1.170826
v -0.679280 -1.532541 0.918258
v -0.679280 -1.532541 0.918258
v -0.679280 -1.532541 0.918258
v -0.679280 -1.532541 0.918258
v -0.679280 1.898717 0.918258
v -0.679280 1.898717 0.918258
v -0.679280 1.898717 0.918258
v -0.679280 1.898717 0.918258
v -0.679280 -1.532541 -1.292668
v -0.679280 -1.532541 -1.292668
v -0.679280 -1.532541 -1.292668
v -0.679280 -1.532541 -1.292668
v -0.679280 1.898717 -1.292668
v -0.679280 1.898717 -1.292668
v -0.679280 1.898717 -1.292668
v -0.679280 1.898717 -1.292668
v -0.478973 -1.180557 0.796417
v -0.478973 -1.180557 0.796417
v -0.478973 1.546734 0.796417
v -0.478973 1.546734 0.796417
v -0.478973 -1.180557 -1.170826
v -0.478973 -1.180557 -1.170826
v -0.478973 1.546734 -1.170826
v -0.478973 1.546734 -1.170826
v -0.528001 -1.180557 -0.014857
v -0.528001 -1.180557 -0.014857
v -0.528001 -1.180557 -0.014857
v -0.528001 1.637863 -0.014857
v -0.528001 1.637863 -0.014857
v -0.528001 1.637863 -0.014857
v -0.528001 -1.180557 -0.157938
v -0.528001 -1.180557 -0.157938
v -0.528001 -1.180557 -0.157938
v -0.528001 1.637863 -0.157938
v -0.528001 1.637863 -0.157938
v -0.528001 1.637863 -0.157938
v -0.630251 -1.180557 -0.014857
v -0.630251 -1.180557 -0.014857
v -0.630251 -1.180557 -0.014857
v -0.630251 1.637863 -0.014857
v -0.630251 1.637863 -0.014857
v -0.630251 1.637863 -0.014857
v -0.630251 -1.180557 -0.157938
v -0.630251 -1.180557 -0.157938
v -0.630251 -1.180557 -0.157938
v -0.630251 1.637863 -0.157938
v -0.630251 1.637863 -0.157938
v -0.630251 1.637863 -0.157938
v -0.528001 0.183088 -0.067846
v -0.528001 0.183088 -0.067846
v -0.528001 0.183088 -0.067846
v -0.528001 0.183089 -0.210927
v -0.528001 0.183089 -0.210927
v -0.528001 0.183089 -0.210927
v -0.630251 0.183089 -0.210927
v -0.630251 0.183089 -0.210927
v -0.630251 0.183089 -0.210927
v -0.630251 0.183089 -0.210927
v -0.630251 0.183089 -0.067846
v -0.630251 0.183089 -0.067846
v -0.630251 0.183089 -0.067846
v -0.630251 0.183089 -0.067846
v -0.626383 0.202995 0.796417
v -0.626383 0.202995 0.796417
v -0.626383 0.202995 0.796417
v -0.626383 0.202995 -1.268968
v -0.626383 0.202995 -1.268968
v -0.626383 0.202995 -1.268968
v -0.526005 0.202995 0.796417
v -0.526005 0.202995 0.796417
v -0.526005 0.202995 0.796417
v -0.526005 0.202995 -1.268968
v -0.526005 0.202995 -1.268968
v -0.526005 0.202995 -1.268968
v -0.626383 0.087162 0.796417
v -0.626383 0.087162 0.796417
v -0.626383 0.087162 0.796417
v -0.626383 0.087162 -1.268968
v -0.626383 0.087162 -1.268968
v -0.626383 0.087162 -1.268968
v -0.526005 0.087162 0.796417
v -0.526005 0.087162 0.796417
v -0.526005 0.087162 0.796417
v -0.526005 0.087162 -1.268968
v -0.526005 0.087162 -1.268968
v -0.526005 0.087162 -1.268968
v -0.679280 0.202995 0.284682
v -0.679280 0.202995 0.284682
v -0.679280 0.202995 0.284682
v -0.679280 0.202995 0.284682
v -0.526005 0.202995 0.754081
v -0.526005 0.202995 0.754081
v -0.526005 0.202995 0.754081
v -0.526005 0.202995 0.754081
v -0.526005 0.087162 0.754081
v -0.526005 0.087162 0.754081
v -0.526005 0.087162 0.754081
v -0.526005 0.087162 0.754081
v -0.679280 0.087162 0.284682
v -0.679280 0.087162 0.284682
v -0.679280 0.087162 0.284682
v -0.679280 0.087162 0.284682
v -0.707714 0.202995 -0.487707
v -0.707714 0.202995 -0.487707
v -0.707714 0.202995 -0.487707
v -0.569119 0.202995 -0.496775
v -0.569119 0.202995 -0.496775
v -0.569119 0.202995 -0.496775
v -0.569119 0.061952 -0.496775
v -0.569119 0.061952 -0.496775
v -0.569119 0.061952 -0.496775
v -0.569119 0.061952 -0.496775
v -0.707714 0.061952 -0.487707
v -0.707714 0.061952 -0.487707
v -0.707714 0.061952 -0.487707
v -0.707714 0.061952 -0.487707
v -0.478972 3.912833 3.376267
v -0.478972 3.912833 3.376267
v -0.478972 3.912833 3.376267
v -0.478972 3.912833 3.376267
v -0.478972 3.912833 -3.858270
v -0.478972 3.912833 -3.858270
v -0.478972 3.912833 -3.858270
v -0.478972 3.912833 -3.858270
v -0.478972 -3.321704 -3.858270
v -0.478972 -3.321704 -3.858270
v -0.478972 -3.321704 -3.858270
v -0.478972 -3.321704 3.376267
v -0.478972 -3.321704 3.376267
v -0.478972 -3.321704 3.376267
v -0.478972 -3.321704 3.376267
v -0.478973 -1.180557 0.796417
v -0.478973 -1.180557 0.796417
v -0.478973 -1.180557 0.796417
v -0.478973 -1.180557 0.796417
v -0.478973 1.546734 0.796417
v -0.478973 1.546734 0.796417
v -0.478973 1.546734 0.796417
v -0.478973 1.546734 0.796417
v -0.478973 -1.180557 -1.170826
v -0.478973 -1.180557 -1.170826
v -0.478973 -1.180557 -1.170826
v -0.478973 -1.180557 -1.170826
v -0.478973 1.546734 -1.170826
v -0.478973 1.546734 -1.170826
v -0.478973 1.546734 -1.170826
v -0.478973 1.546734 -1.170826
v -0.478973 -1.180557 -1.170826
v -0.478973 -1.180557 -1.170826
v -0.478973 -1.180557 -1.170826
v -0.478972 -3.321704 -3.858270
v -0.478972 -3.321704 -3.858270
v -0.478972 -3.321704 -3.858270
v -0.478973 1.546734 -1.170826
v -0.478973 1.546734 -1.170826
v -0.478973 1.546734 -1.170826
v -0.478972 3.912833 -3.858270
v -0.478972 3.912833 -3.858270
v -0.478972 3.912833 -3.858270
v -0.478972 3.912833 3.376267
v -0.478972 3.912833 3.376267
v -0.478972 -3.321704 3.376267
v -0.478972 -3.321704 3.376267
v -0.478973 -1.180557 0.796417
v -0.478973 -1.180557 0.796417
v -0.478973 1.546734 0.796417
v -0.478973 1.546734 0.796417
vt 0.625000 0.500000
vt 0.875000 0.750000
vt 0.875000 0.500000
vt 0.625000 0.750000
vt 0.375000 0.750000
vt 0.625000 1.000000
vt 0.625000 0.750000
vt 0.375000 1.000000
vt 0.125000 0.500000
vt 0.375000 0.750000
vt 0.375000 0.500000
vt 0.125000 0.750000
vt 0.597705 0.527295
vt 0.597705 0.722705
vt 0.597705 0.722705
vt 0.597705 0.527295
vt 0.375000 0.250000
vt 0.625000 0.500000
vt 0.625000 0.250000
vt 0.375000 0.500000
vt 0.597705 0.527295
vt 0.375000 0.500000
vt 0.402295 0.527295
vt 0.625000 0.500000
vt 0.402295 0.722705
vt 0.625000 0.750000
vt 0.597705 0.722705
vt 0.375000 0.750000
vt 0.597705 0.722705
vt 0.625000 0.750000
vt 0.402295 0.527295
vt 0.375000 0.750000
vt 0.402295 0.722705
vt 0.375000 0.500000
vt 0.422340 0.538064
vt 0.577660 0.538064
vt 0.577660 0.538064
vt 0.422340 0.538064
vt 0.402295 0.527295
vt 0.597705 0.527295
vt 0.597705 0.527295
vt 0.402295 0.527295
vt 0.402295 0.722705
vt 0.402295 0.527295
vt 0.402295 0.527295
vt 0.402295 0.722705
vt 0.597705 0.722705
vt 0.402295 0.722705
vt 0.402295 0.722705
vt 0.597705 0.722705
vt 0.577660 0.538064
vt 0.597705 0.527295
vt 0.402295 0.527295
vt 0.422340 0.711936
vt 0.402295 0.722705
vt 0.597705 0.722705
vt 0.577660 0.711936
vt 0.597705 0.527295
vt 0.577660 0.538064
vt 0.597705 0.722705
vt 0.422340 0.538064
vt 0.402295 0.722705
vt 0.422340 0.711936
vt 0.402295 0.527295
vt 0.125000 0.750000
vt 0.422340 0.538064
vt 0.422340 0.711936
vt 0.577660 0.538064
vt 0.875000 0.750000
vt 0.577660 0.711936
vt 0.125000 0.500000
vt 0.625000 0.250000
vt 0.422340 0.711936
vt 0.422340 0.538064
vt 0.422340 0.538064
vt 0.422340 0.711936
vt 0.577660 0.711936
vt 0.422340 0.711936
vt 0.422340 0.711936
vt 0.577660 0.711936
vt 0.577660 0.538064
vt 0.577660 0.711936
vt 0.577660 0.711936
vt 0.577660 0.538064
vt 0.577660 0.711936
vt 0.375000 1.000000
vt 0.422340 0.711936
vt 0.625000 1.000000
vt 0.500000 0.000000
vt 0.625000 0.250000
vt 0.625000 0.000000
vt 0.500000 0.250000
vt 0.500000 0.250000
vt 0.625000 0.500000
vt 0.625000 0.250000
vt 0.500000 0.500000
vt 0.500000 0.500000
vt 0.625000 0.750000
vt 0.625000 0.500000
vt 0.500000 0.750000
vt 0.500000 0.750000
vt 0.625000 1.000000
vt 0.625000 0.750000
vt 0.500000 1.000000
vt 0.125000 0.500000
vt 0.375000 0.750000
vt 0.375000 0.500000
vt 0.125000 0.750000
vt 0.625000 0.500000
vt 0.875000 0.750000
vt 0.875000 0.500000
vt 0.625000 0.750000
vt 0.375000 0.750000
vt 0.500000 1.000000
vt 0.500000 0.750000
vt 0.375000 1.000000
vt 0.375000 0.500000
vt 0.500000 0.750000
vt 0.500000 0.500000
vt 0.375000 0.750000
vt 0.375000 0.250000
vt 0.500000 0.500000
vt 0.500000 0.250000
vt 0.375000 0.500000
vt 0.375000 0.000000
vt 0.375000 0.250000
vt 0.524799 0.000000
vt 0.625000 0.250000
vt 0.625000 0.000000
vt 0.524798 0.250000
vt 0.524798 0.250000
vt 0.625000 0.500000
vt 0.625000 0.250000
vt 0.524799 0.500000
vt 0.524799 0.750000
vt 0.625000 1.000000
vt 0.625000 0.750000
vt 0.524799 1.000000
vt 0.125000 0.500000
vt 0.375000 0.750000
vt 0.375000 0.500000
vt 0.125000 0.750000
vt 0.625000 0.500000
vt 0.875000 0.750000
vt 0.875000 0.500000
vt 0.625000 0.750000
vt 0.375000 0.750000
vt 0.424597 1.000000
vt 0.424597 0.750000
vt 0.375000 1.000000
vt 0.375000 0.500000
vt 0.424597 0.750000
vt 0.424597 0.500000
vt 0.375000 0.750000
vt 0.375000 0.250000
vt 0.424597 0.500000
vt 0.424597 0.250000
vt 0.375000 0.500000
vt 0.375000 0.000000
vt 0.424597 0.250000
vt 0.424597 0.000000
vt 0.375000 0.250000
vt 0.424597 0.750000
vt 0.524799 1.000000
vt 0.524799 0.750000
vt 0.424597 1.000000
vt 0.424597 0.250000
vt 0.424597 0.500000
vt 0.524799 0.500000
vt 0.424597 0.000000
vt 0.424597 0.250000
vt 0.422340 0.538064
vt 0.577660 0.711936
vt 0.524799 0.500000
vt 0.625000 0.750000
vt 0.625000 0.500000
vt 0.524799 0.750000
vt 0.424597 0.500000
vt 0.524799 0.750000
vt 0.524799 0.500000
vt 0.424597 0.750000
vt 0.524798 0.250000
vt 0.125000 0.750000
vt 0.125000 0.500000
vt 0.125000 0.500000
vt 0.125000 0.750000
vt 0.000000 0.000000
vt 0.000000 0.000000
vt 0.000000 0.000000
vt 0.000000 0.000000
vt 0.000000 0.000000
vt 0.000000 0.000000
vt 0.000000 0.000000
vt 0.000000 0.000000
vt 0.625000 0.250000
vt 0.875000 0.750000
vt 0.625000 0.250000
vt 0.000000 0.000000
vt 0.000000 0.000000
vt 0.000000 0.000000
vt 0.000000 0.000000
vt 0.000000 0.000000
vt 0.000000 0.000000
vt 0.000000 0.000000
vt 0.000000 0.000000
vt 0.577660 0.711936
vt 0.577660 0.538064
vt 0.577660 0.538064
vt 0.577660 0.711936
vt 0.422340 0.538064
vt 0.422340 0.711936
vt 0.422340 0.711936
vt 0.422340 0.538064
vt 0.875000 0.750000
vt 0.577660 0.711936
vt 0.422340 0.711936
vt 0.125000 0.750000
vt 0.125000 0.500000
vt 0.625000 0.250000
vt 0.577660 0.538064
vt 0.422340 0.538064
vn 0.0000 -1.0000 0.0000
vn 0.0000 0.0000 -1.0000
vn 0.0000 1.0000 0.0000
vn 0.0000 0.0000 1.0000
vn -1.0000 0.0000 0.0000
vn 1.0000 -0.0000 0.0000
vn 0.0000 0.0364 -0.9993
vn 0.0000 -0.0364 0.9993
vn 0.0000 0.0388 0.9992
vn 0.0000 -0.0388 -0.9992
vn 0.9984 0.0000 0.0557
vn -0.9946 0.0000 -0.1035
vn -0.9947 0.0000 0.1028
vn -0.9993 -0.0000 0.0368
vn 0.9994 0.0000 -0.0344
vn -0.0020 -0.9995 -0.0318
vn -0.0000 -0.9994 -0.0337
vn -0.0002 -0.9995 -0.0313
vn -0.0020 -0.9994 -0.0333
vn -0.0932 -0.9950 0.0355
vn -0.0049 -0.9999 -0.0143
vn -0.0007 -0.9980 0.0634
vn -0.0423 -0.9989 0.0220
vn 0.0000 0.0000 0.0000
vn -0.0300 -0.0724 -0.9969
vn 0.0000 0.0000 -0.9239
vn 0.1464 0.3535 -0.9239
vn -0.1464 -0.3535 -0.9239
vn 0.0300 0.0725 -0.9969
usemtl Material
s off
f 25/1/1 181/2/1 185/3/1
f 25/1/1 32/4/1 181/2/1
f 36/5/2 179/6/2 31/7/2
f 36/5/2 176/8/2 179/6/2
f 171/9/3 35/10/3 27/11/3
f 171/9/3 175/12/3 35/10/3
f 2/13/1 64/14/1 9/15/1
f 2/13/1 56/16/1 64/14/1
f 172/17/4 24/18/4 182/19/4
f 172/17/4 28/20/4 24/18/4
f 3/21/5 30/22/5 7/23/5
f 3/21/5 26/24/5 30/22/5
f 15/25/5 34/26/5 11/27/5
f 15/25/5 38/28/5 34/26/5
f 10/29/5 26/24/5 3/21/5
f 10/29/5 33/30/5 26/24/5
f 6/31/5 37/32/5 14/33/5
f 6/31/5 29/34/5 37/32/5
f 43/35/2 187/36/2 40/37/2
f 43/35/2 190/38/2 187/36/2
f 5/39/4 55/40/4 1/41/4
f 5/39/4 60/42/4 55/40/4
f 12/43/3 59/44/3 4/45/3
f 12/43/3 67/46/3 59/44/3
f 8/47/2 68/48/2 13/49/2
f 8/47/2 63/50/2 68/48/2
f 41/51/5 57/52/5 61/53/5
f 53/54/5 69/55/5 65/56/5
f 50/57/5 58/58/5 42/59/5
f 50/57/5 66/60/5 58/58/5
f 46/61/5 70/62/5 54/63/5
f 46/61/5 62/64/5 70/62/5
f 22/65/6 73/66/6 77/67/6
f 71/68/6 20/69/6 75/70/6
f 18/71/6 73/66/6 22/65/6
f 71/68/6 16/72/6 20/69/6
f 18/71/6 71/68/6 73/66/6
f 71/68/6 18/71/6 16/72/6
f 52/73/1 191/74/1 44/75/1
f 52/73/1 199/76/1 191/74/1
f 48/77/4 198/78/4 51/79/4
f 48/77/4 195/80/4 198/78/4
f 39/81/3 194/82/3 47/83/3
f 39/81/3 186/84/3 194/82/3
f 202/85/6 211/86/6 208/87/6
f 202/85/6 205/88/6 211/86/6
f 103/89/6 88/90/6 82/91/6
f 103/89/6 106/92/6 88/90/6
f 107/93/7 101/94/7 90/95/7
f 107/93/7 109/96/7 101/94/7
f 112/97/5 96/98/5 102/99/5
f 112/97/5 116/100/5 96/98/5
f 114/101/8 84/102/8 95/103/8
f 114/101/8 105/104/8 84/102/8
f 87/105/1 92/106/1 98/107/1
f 87/105/1 81/108/1 92/106/1
f 100/109/3 83/110/3 89/111/3
f 100/109/3 94/112/3 83/110/3
f 91/113/9 104/114/9 113/115/9
f 91/113/9 80/116/9 104/114/9
f 99/117/5 115/118/5 111/119/5
f 99/117/5 93/120/5 115/118/5
f 86/121/10 110/122/10 108/123/10
f 86/121/10 97/124/10 110/122/10
f 79/125/6 106/92/6 103/89/6
f 79/125/6 85/126/6 106/92/6
f 157/127/3 127/128/3 120/129/3
f 157/127/3 162/130/3 127/128/3
f 161/131/11 138/132/11 126/133/11
f 161/131/11 164/134/11 138/132/11
f 169/135/12 122/136/12 134/137/12
f 169/135/12 158/138/12 122/136/12
f 124/139/4 129/140/4 136/141/4
f 124/139/4 117/142/4 129/140/4
f 139/143/2 121/144/2 128/145/2
f 139/143/2 132/146/2 121/144/2
f 131/147/13 143/148/13 155/149/13
f 131/147/13 119/150/13 143/148/13
f 137/151/1 153/152/1 151/153/1
f 137/151/1 130/154/1 153/152/1
f 123/155/6 149/156/6 145/157/6
f 123/155/6 135/158/6 149/156/6
f 118/159/3 148/160/3 142/161/3
f 118/159/3 125/162/3 148/160/3
f 156/163/14 159/164/14 170/165/14
f 156/163/14 144/166/14 159/164/14
f 146/167/15 150/168/15 163/169/15
f 141/170/3 162/130/3 157/127/3
f 141/170/3 147/171/3 162/130/3
s 1
f 41/51/5 61/53/5 45/172/5
f 53/54/5 65/56/5 49/173/5
f 165/174/16 133/175/17 140/176/18
f 165/174/16 167/177/19 133/175/17
f 152/178/20 168/179/21 166/180/22
f 152/178/20 154/181/23 168/179/21
f 146/167/15 163/169/15 160/182/15
f 213/183/4 174/184/24 215/185/25
f 213/183/4 178/186/24 174/184/24
f 206/187/26 177/188/26 212/189/27
f 206/187/26 180/190/28 177/188/26
f 214/191/26 183/192/26 216/193/28
f 214/191/26 173/194/27 183/192/26
f 217/195/2 181/2/24 207/196/4
f 217/195/2 184/197/24 181/2/24
f 218/198/26 192/199/26 220/200/27
f 218/198/26 188/201/28 192/199/26
f 209/202/26 196/203/26 203/204/28
f 209/202/26 200/205/27 196/203/26
f 204/206/4 189/207/24 219/208/29
f 204/206/4 197/209/24 189/207/24
f 221/210/2 201/211/24 210/212/4
f 221/210/2 193/213/24 201/211/24
f 21/214/24 204/206/4 76/215/24
f 21/214/24 207/196/4 204/206/4
f 78/216/24 213/183/4 23/217/24
f 78/216/24 210/212/4 213/183/4
f 23/217/24 215/185/25 19/218/24
f 23/217/24 213/183/4 215/185/25
f 19/218/24 217/195/2 17/219/24
f 19/218/24 215/185/25 217/195/2
f 17/219/24 207/196/4 21/214/24
f 17/219/24 217/195/2 207/196/4
f 72/220/24 221/210/2 74/221/24
f 72/220/24 219/208/29 221/210/2
f 76/215/24 219/208/29 72/220/24
f 76/215/24 204/206/4 219/208/29
f 74/221/24 210/212/4 78/216/24
f 74/221/24 221/210/2 210/212/4
