# Blender v3.0.0 OBJ File: 'wall_smooth.blend'
# www.blender.org
mtllib wall_smooth.mtl
o Cube
v -0.039274 -3.526933 3.543610
v -0.039274 3.707604 3.543610
v -0.039274 -3.526933 -3.690928
v -0.039274 3.707604 -3.690928
v 0.083811 3.707604 3.543610
v 0.083811 3.707604 -3.690928
v 0.083811 -3.526933 3.543610
v 0.083811 -3.526933 -3.690928
vt 0.625000 0.500000
vt 0.625000 0.750000
vt 0.875000 0.750000
vt 0.875000 0.500000
vt 0.375000 0.750000
vt 0.375000 1.000000
vt 0.625000 1.000000
vt 0.125000 0.500000
vt 0.125000 0.750000
vt 0.375000 0.500000
vt 0.375000 0.250000
vt 0.625000 0.250000
vn 0.0000 -1.0000 0.0000
vn 0.0000 0.0000 -1.0000
vn 0.0000 1.0000 0.0000
vn 0.0000 0.0000 1.0000
vn -1.0000 0.0000 0.0000
vn 1.0000 0.0000 0.0000
usemtl Material
s off
f 1/1/1 3/2/1 8/3/1 7/4/1
f 4/5/2 6/6/2 8/7/2 3/2/2
f 5/8/3 6/9/3 4/5/3 2/10/3
f 5/11/4 2/10/4 1/1/4 7/12/4
f 2/10/5 4/5/5 3/2/5 1/1/5
f 6/9/6 5/8/6 7/12/6 8/3/6
o Cube.001
v 4.707070 3.707071 -26.707071
v 4.707070 -3.707071 -26.707071
v 4.707070 3.707071 -19.292929
v 4.707070 -3.707071 -19.292929
v -2.707071 3.707071 -26.707071
v -2.707071 -3.707071 -26.707071
v -2.707071 3.707071 -19.292929
v -2.707071 -3.707071 -19.292929
vt 0.625000 0.500000
vt 0.875000 0.500000
vt 0.875000 0.750000
vt 0.625000 0.750000
vt 0.375000 0.750000
vt 0.625000 1.000000
vt 0.375000 1.000000
vt 0.375000 0.000000
vt 0.625000 0.000000
vt 0.625000 0.250000
vt 0.375000 0.250000
vt 0.125000 0.500000
vt 0.375000 0.500000
vt 0.125000 0.750000
vn 0.0000 1.0000 0.0000
vn 0.0000 0.0000 1.0000
vn -1.0000 0.0000 0.0000
vn 0.0000 -1.0000 0.0000
vn 1.0000 0.0000 0.0000
vn 0.0000 0.0000 -1.0000
usemtl Material.001
s off
f 9/13/7 13/14/7 15/15/7 11/16/7
f 12/17/8 11/16/8 15/18/8 16/19/8
f 16/20/9 15/21/9 13/22/9 14/23/9
f 14/24/10 10/25/10 12/17/10 16/26/10
f 10/25/11 9/13/11 11/16/11 12/17/11
f 14/23/12 13/22/12 9/13/12 10/25/12
